<?xml version="1.0" encoding="utf-8"?>
<!-- Generator: Adobe Illustrator 22.1.0, SVG Export Plug-In . SVG Version: 6.00 Build 0)  -->
<svg version="1.1" id="Layer_1" xmlns="http://www.w3.org/2000/svg" xmlns:xlink="http://www.w3.org/1999/xlink" x="0px" y="0px"
	 viewBox="0 0 154.6 68.3" style="enable-background:new 0 0 154.6 68.3;" xml:space="preserve">
<style type="text/css">
	.st0{fill:#FFFFFF;}
	.st1{fill:#009FE3;}
</style>
<g>
	<g>
		<rect x="2.2" y="1.7" class="st0" width="150.6" height="65.1"/>
		<path class="st1" d="M154.5,68.6H0.4V-0.1h154.2V68.6z M4,65h147V3.5H4V65z"/>
	</g>
	<g>
		<path class="st1" d="M13.4,12.6H29v3.7H17.6v8.1H29v3.7H17.6v13.6h-4.2V12.6z"/>
		<path class="st1" d="M44.9,12.4h2.9l13.1,29.3h-4.3l-3.9-8.6H40.3l-3.6,8.6h-4.3L44.9,12.4z M51.1,29.4l-4.7-10.6L42,29.4H51.1z"
			/>
		<path class="st1" d="M91.8,35v4.6c-3.1,1.7-6.6,2.5-10.6,2.5c-3.3,0-6-0.7-8.3-2c-2.3-1.3-4.1-3.1-5.4-5.4c-1.3-2.3-2-4.8-2-7.5
			c0-4.2,1.5-7.8,4.5-10.7s6.8-4.3,11.2-4.3c3.1,0,6.5,0.8,10.2,2.4v4.5c-3.4-1.9-6.7-2.9-10-2.9c-3.3,0-6.1,1.1-8.3,3.2
			c-2.2,2.1-3.3,4.8-3.3,7.9c0,3.2,1.1,5.8,3.3,7.9c2.2,2.1,4.9,3.1,8.3,3.1C85,38.2,88.5,37.2,91.8,35z"/>
		<path class="st1" d="M102.4,12.6h12.9v3.7h-9.1v7.4c0.3,0,0.6,0,0.9,0c2.8,0,5.2,0.9,7,2.6c1.8,1.7,2.7,3.9,2.7,6.6
			c0,2.7-0.9,5-2.7,6.7c-1.8,1.7-4.1,2.6-7,2.6c-2.4,0-4.7-0.6-6.9-1.7V36c2.1,1.4,4.2,2,6.2,2c1.8,0,3.2-0.5,4.4-1.5
			c1.2-1,1.8-2.3,1.8-3.8c0-1.5-0.6-2.8-1.9-3.9c-1.3-1-2.9-1.6-4.8-1.6c-1.7,0-2.8,0.1-3.4,0.4V12.6z"/>
		<path class="st1" d="M132.8,12.2c2.7,0,4.9,1.4,6.6,4.2c1.7,2.8,2.6,6.4,2.6,10.7c0,4.4-0.9,8-2.6,10.8c-1.7,2.8-4,4.2-6.8,4.2
			c-2.8,0-5.1-1.4-6.8-4.1c-1.7-2.7-2.6-6.3-2.6-10.8c0-4.4,0.9-8,2.7-10.8C127.7,13.6,130,12.2,132.8,12.2z M132.9,16.2h-0.2
			c-1.6,0-2.9,1-3.8,3s-1.4,4.6-1.4,8c0,3.5,0.5,6.2,1.4,8.1c0.9,2,2.2,2.9,3.8,2.9c1.6,0,2.9-1,3.8-2.9s1.4-4.6,1.4-8
			c0-3.4-0.4-6.1-1.3-8.1C135.6,17.2,134.4,16.2,132.9,16.2z"/>
	</g>
	<g>
		<path class="st1" d="M13.4,46.4h8.8v1.3h-3.7v9.2H17v-9.2h-3.6V46.4z"/>
		<path class="st1" d="M32.6,46.4h1.5v10.5h-1.5v-4.6h-5.9v4.6h-1.5V46.4h1.5V51h5.9V46.4z"/>
		<path class="st1" d="M37.9,46.4h6v1.3h-4.5V51h4.3v1.3h-4.3v3.3H44v1.3h-6.1V46.4z"/>
		<path class="st1" d="M55.6,52.5l-1.1-0.7c-0.7-0.4-1.2-0.9-1.5-1.3c-0.3-0.4-0.5-0.9-0.5-1.5c0-0.8,0.3-1.5,0.9-2
			c0.6-0.5,1.3-0.8,2.2-0.8c0.9,0,1.7,0.2,2.4,0.7v1.7c-0.8-0.7-1.6-1.1-2.4-1.1c-0.5,0-0.9,0.1-1.2,0.3c-0.3,0.2-0.5,0.5-0.5,0.9
			c0,0.3,0.1,0.6,0.3,0.9c0.2,0.3,0.6,0.6,1.1,0.9l1.2,0.7c1.3,0.8,1.9,1.7,1.9,2.9c0,0.8-0.3,1.5-0.8,2.1c-0.6,0.5-1.3,0.8-2.2,0.8
			c-1,0-2-0.3-2.8-1v-1.9c0.8,1,1.8,1.5,2.8,1.5c0.5,0,0.9-0.1,1.2-0.4c0.3-0.3,0.5-0.6,0.5-1C57,53.7,56.6,53.1,55.6,52.5z"/>
		<path class="st1" d="M69,46.4h1.5v6c0,0.8-0.1,1.4-0.2,1.8c-0.1,0.4-0.3,0.8-0.4,1c-0.2,0.3-0.4,0.5-0.6,0.7
			c-0.8,0.7-1.9,1.1-3.3,1.1c-1.4,0-2.5-0.4-3.3-1.1c-0.3-0.2-0.5-0.5-0.6-0.7c-0.2-0.3-0.3-0.6-0.4-1c-0.1-0.4-0.2-1-0.2-1.9v-6
			h1.5v6c0,1,0.1,1.7,0.3,2.1c0.2,0.4,0.6,0.7,1,0.9c0.5,0.2,1,0.3,1.6,0.3c0.9,0,1.6-0.2,2.2-0.7c0.3-0.3,0.5-0.5,0.6-0.9
			c0.1-0.3,0.2-0.9,0.2-1.8V46.4z"/>
		<path class="st1" d="M82.5,46.4h1.4v10.5h-1.3l-7-8.1v8.1h-1.4V46.4h1.2l7.1,8.2V46.4z"/>
		<path class="st1" d="M92.9,57.1l0,0.1c0.3,0.1,0.5,0.2,0.6,0.4c0.2,0.2,0.2,0.4,0.2,0.6c0,0.4-0.2,0.7-0.5,1
			c-0.3,0.3-0.8,0.4-1.5,0.4c-0.2,0-0.3,0-0.5,0v-0.9c0.3,0,0.4,0,0.5,0c0.3,0,0.5-0.1,0.7-0.2c0.1-0.1,0.1-0.2,0.1-0.3
			c0-0.1-0.1-0.2-0.2-0.3c-0.1-0.1-0.3-0.1-0.6-0.1c-0.1,0-0.1,0-0.2,0L92,57c-0.8-0.1-1.5-0.3-2.1-0.7c-0.8-0.5-1.5-1.1-1.9-2
			c-0.5-0.8-0.7-1.7-0.7-2.7c0-1.5,0.5-2.8,1.6-3.9c1.1-1,2.4-1.6,4-1.6c1.1,0,2.3,0.3,3.7,0.9v1.6c-1.2-0.7-2.4-1.1-3.6-1.1
			c-1.2,0-2.2,0.4-3,1.1c-0.8,0.8-1.2,1.7-1.2,2.9c0,1.2,0.4,2.1,1.2,2.8c0.8,0.7,1.8,1.1,3,1.1c1.3,0,2.5-0.4,3.7-1.2v1.7
			C95.6,56.8,94.4,57.1,92.9,57.1L92.9,57.1z"/>
		<path class="st1" d="M100.2,56.9V46.4h2.6c1.1,0,1.9,0.3,2.5,0.8c0.6,0.5,0.9,1.2,0.9,2.1c0,0.6-0.2,1.1-0.5,1.6
			c-0.3,0.4-0.7,0.8-1.3,1c0.3,0.2,0.7,0.5,1,0.9c0.3,0.4,0.8,1,1.4,2c0.4,0.6,0.7,1,0.9,1.3l0.6,0.8h-1.8l-0.5-0.7
			c0,0,0-0.1-0.1-0.1l-0.3-0.4l-0.5-0.8l-0.5-0.8c-0.3-0.4-0.6-0.8-0.9-1c-0.3-0.3-0.5-0.4-0.7-0.6c-0.2-0.1-0.6-0.2-1.1-0.2h-0.4
			v4.6H100.2z M102.1,47.7h-0.5V51h0.6c0.8,0,1.3-0.1,1.6-0.2c0.3-0.1,0.5-0.3,0.7-0.6c0.2-0.3,0.2-0.6,0.2-0.9
			c0-0.3-0.1-0.6-0.3-0.9c-0.2-0.3-0.4-0.5-0.7-0.6C103.4,47.8,102.9,47.7,102.1,47.7z"/>
		<path class="st1" d="M111,46.4h6v1.3h-4.5V51h4.3v1.3h-4.3v3.3h4.6v1.3H111V46.4z"/>
		<path class="st1" d="M123.6,46.4h1.1l4.7,10.6h-1.5l-1.4-3.1H122l-1.3,3.1h-1.5L123.6,46.4z M125.8,52.5l-1.7-3.8l-1.6,3.8H125.8z
			"/>
		<path class="st1" d="M140.5,46.4h1.4v10.5h-1.5v-8.2l-3.2,4.1h-0.3l-3.3-4.1v8.2h-1.5V46.4h1.4l3.5,4.3L140.5,46.4z"/>
	</g>
</g>
</svg>
