<?xml version="1.0" encoding="utf-8"?>
<!-- Generator: Adobe Illustrator 22.1.0, SVG Export Plug-In . SVG Version: 6.00 Build 0)  -->
<svg version="1.1" id="Layer_1" xmlns="http://www.w3.org/2000/svg" xmlns:xlink="http://www.w3.org/1999/xlink" x="0px" y="0px"
	 viewBox="0 0 149.2 63.3" style="enable-background:new 0 0 149.2 63.3;" xml:space="preserve">
<style type="text/css">
	.st0{fill:#FFFFFF;}
	.st1{fill:none;stroke:#1B9DD9;stroke-width:3.77;}
	.st2{fill:#1B9DD9;}
	.st3{fill:none;stroke:#1B9DD9;stroke-width:0.5;stroke-miterlimit:10;}
</style>
<title>Artboard 1</title>
<rect class="st0" width="149.2" height="63.3"/>
<rect x="1.9" y="1.9" class="st1" width="145.5" height="59.7"/>
<polygon class="st2" points="13.7,39.4 22,39.4 22,40.6 18.5,40.6 18.5,49.4 17.1,49.4 17.1,40.6 13.7,40.6 "/>
<polygon class="st2" points="31.8,39.4 33.3,39.4 33.3,49.4 31.8,49.4 31.8,45 26.2,45 26.2,49.4 24.8,49.4 24.8,39.4 26.2,39.4 
	26.2,43.7 31.8,43.7 "/>
<polygon class="st2" points="36.9,39.4 42.6,39.4 42.6,40.7 38.3,40.7 38.3,43.7 42.4,43.7 42.4,45 38.3,45 38.3,48.1 42.7,48.1 
	42.7,49.4 36.9,49.4 "/>
<path class="st2" d="M53.7,45.2l-1.1-0.7c-0.6-0.3-1-0.7-1.4-1.2c-0.3-0.4-0.4-0.9-0.4-1.4c0-0.7,0.3-1.4,0.8-1.9
	c0.6-0.5,1.3-0.8,2.1-0.7c0.8,0,1.6,0.2,2.3,0.7v1.6c-0.6-0.6-1.4-1-2.3-1c-0.4,0-0.8,0.1-1.1,0.3c-0.3,0.2-0.4,0.5-0.5,0.8
	c0,0.3,0.1,0.6,0.3,0.8c0.3,0.3,0.7,0.6,1.1,0.8l1.1,0.6c1.1,0.5,1.8,1.6,1.8,2.8c0,0.8-0.3,1.5-0.8,2c-0.6,0.5-1.3,0.8-2.1,0.8
	c-1,0-1.9-0.3-2.7-0.9v-1.8c0.6,0.9,1.6,1.4,2.7,1.5c0.4,0,0.8-0.1,1.1-0.4c0.3-0.2,0.5-0.6,0.5-0.9C55,46.4,54.6,45.8,53.7,45.2"/>
<path class="st2" d="M66.3,39.4h1.4v5.7c0,0.6,0,1.2-0.2,1.7c-0.1,0.4-0.2,0.7-0.4,1c-0.2,0.3-0.4,0.5-0.6,0.7c-0.9,0.7-2,1.1-3.1,1
	c-1.1,0.1-2.2-0.3-3.1-1c-0.2-0.2-0.4-0.4-0.6-0.7c-0.2-0.3-0.3-0.6-0.4-1c-0.1-0.6-0.2-1.2-0.1-1.8v-5.6h1.4v5.7
	c0,0.7,0.1,1.3,0.3,2c0.2,0.4,0.6,0.7,1,0.9c0.5,0.2,1,0.3,1.5,0.3c0.7,0,1.5-0.2,2.1-0.7c0.3-0.2,0.5-0.5,0.6-0.8
	c0.2-0.5,0.2-1.1,0.2-1.7L66.3,39.4z"/>
<polygon class="st2" points="79.1,39.4 80.4,39.4 80.4,49.4 79.2,49.4 72.5,41.7 72.5,49.4 71.2,49.4 71.2,39.4 72.4,39.4 
	79.1,47.1 "/>
<path class="st2" d="M89,49.5v0.1c0.2,0,0.4,0.2,0.6,0.4c0.1,0.2,0.2,0.4,0.2,0.6c0,0.4-0.2,0.7-0.4,0.9c-0.4,0.3-0.9,0.4-1.4,0.4
	c-0.2,0-0.3,0-0.5,0V51H88c0.2,0,0.4,0,0.6-0.2c0.1,0,0.1-0.1,0.1-0.2c0-0.1-0.1-0.2-0.1-0.3c-0.2-0.1-0.4-0.1-0.5-0.1h-0.2l0.3-0.8
	c-0.7-0.1-1.4-0.3-2-0.6c-0.8-0.4-1.4-1.1-1.8-1.9c-0.5-0.8-0.7-1.7-0.7-2.5c0-1.4,0.5-2.7,1.5-3.7c1-1,2.4-1.5,3.8-1.5
	c1.2,0,2.4,0.3,3.5,0.8v1.5c-1-0.6-2.2-1-3.4-1c-1.1,0-2.1,0.4-2.8,1.1c-0.7,0.7-1.2,1.7-1.1,2.7c0,1,0.4,2,1.1,2.7
	c0.8,0.7,1.8,1.1,2.9,1.1c1.3,0,2.5-0.4,3.5-1.1v1.6C91.5,49.1,90.3,49.4,89,49.5L89,49.5z"/>
<path class="st2" d="M95.9,49.4v-10h2.5c0.9,0,1.7,0.2,2.4,0.8c0.6,0.5,0.9,1.2,0.9,2c0,0.5-0.1,1.1-0.4,1.5c-0.3,0.4-0.7,0.8-1.2,1
	c0.4,0.2,0.7,0.5,0.9,0.9c0.5,0.6,0.9,1.2,1.3,1.9c0.4,0.6,0.6,1,0.8,1.3l0.5,0.7h-1.7l-0.4-0.7c0,0-0.1-0.1-0.1-0.1l-0.3-0.4
	l-0.5-0.7l-0.5-0.8c-0.2-0.4-0.5-0.7-0.8-1c-0.2-0.2-0.4-0.4-0.7-0.5c-0.3-0.1-0.7-0.2-1-0.2h-0.4v4.3L95.9,49.4z M97.7,40.6h-0.4
	v3.1h0.5c0.5,0,1,0,1.5-0.2c0.3-0.1,0.5-0.3,0.6-0.6c0.2-0.3,0.2-0.6,0.2-0.9c0-0.3-0.1-0.6-0.2-0.9c-0.2-0.3-0.4-0.4-0.7-0.5
	C98.8,40.6,98.2,40.6,97.7,40.6"/>
<polygon class="st2" points="106.1,39.4 111.8,39.4 111.8,40.7 107.6,40.7 107.6,43.7 111.6,43.7 111.6,45 107.6,45 107.6,48.1 
	111.9,48.1 111.9,49.4 106.1,49.4 "/>
<path class="st2" d="M118.1,39.3h1l4.5,10h-1.5l-1.3-3h-4.3l-1.2,3h-1.5L118.1,39.3z M120.2,45.1l-1.6-3.6l-1.5,3.6H120.2z"/>
<polygon class="st2" points="134,39.4 135.4,39.4 135.4,49.4 133.9,49.4 133.9,41.6 130.9,45.5 130.6,45.5 127.5,41.6 127.5,49.4 
	126.1,49.4 126.1,39.4 127.4,39.4 130.7,43.5 "/>
<polygon class="st2" points="13.7,14 23.2,14 23.2,16.3 16.3,16.3 16.3,21.2 23.2,21.2 23.2,23.5 16.3,23.5 16.3,31.7 13.7,31.7 "/>
<path class="st2" d="M30.9,13.9h1.8l8,17.8h-2.6l-2.4-5.2h-7.5l-2.2,5.2h-2.6L30.9,13.9z M34.7,24.2l-2.9-6.4l-2.6,6.4H34.7z"/>
<path class="st2" d="M57.5,27.6v2.8c-2,1-4.2,1.6-6.4,1.5c-1.7,0-3.5-0.4-5-1.2c-2.8-1.6-4.5-4.6-4.5-7.8c0-2.5,1-4.8,2.8-6.5
	c1.8-1.8,4.3-2.7,6.8-2.6c2.1,0.1,4.3,0.6,6.2,1.5V18c-1.8-1.1-3.9-1.7-6.1-1.8c-1.9-0.1-3.7,0.6-5.1,1.9c-2.7,2.6-2.7,6.9,0,9.6
	c0,0,0,0,0,0c1.4,1.3,3.2,1.9,5.1,1.9C53.5,29.6,55.7,28.9,57.5,27.6"/>
<polygon class="st3" points="59.8,14 74.6,14 74.6,16.2 68.4,16.2 68.4,31.7 65.8,31.7 65.8,16.2 59.8,16.2 "/>
<path class="st3" d="M84.6,13.8c2.5-0.1,5,0.9,6.8,2.6c1.8,1.7,2.8,4.1,2.7,6.5c0.1,2.5-0.9,4.8-2.8,6.5c-1.9,1.7-4.4,2.7-7,2.6
	c-2.5,0.1-4.9-0.9-6.7-2.6c-1.8-1.7-2.7-4-2.7-6.4c-0.1-2.5,0.9-4.9,2.7-6.6C79.6,14.6,82.1,13.7,84.6,13.8 M84.7,16.2
	c-1.9-0.1-3.7,0.6-5,1.9c-1.3,1.3-2,3-2,4.9c0,1.8,0.7,3.5,2,4.8c2.8,2.6,7.1,2.6,9.9,0c1.3-1.3,2-3,2-4.8c0-1.8-0.7-3.5-2-4.7
	C88.2,16.8,86.5,16.2,84.7,16.2"/>
<path class="st3" d="M98,31.7V14h4.4c1.5-0.1,3.1,0.4,4.3,1.3c1.1,0.9,1.6,2.2,1.6,3.6c0.1,2-1.1,3.7-3,4.4c0.6,0.4,1.2,0.9,1.7,1.5
	c0.8,1.1,1.6,2.2,2.3,3.4c0.6,1,1.1,1.8,1.5,2.3l0.9,1.3h-3l-0.8-1.2c0-0.1-0.1-0.1-0.1-0.2l-0.5-0.7l-0.8-1.3l-0.9-1.4
	c-0.4-0.6-0.9-1.2-1.4-1.7c-0.3-0.4-0.7-0.7-1.2-0.9c-0.6-0.2-1.2-0.3-1.8-0.3h-0.7v7.7L98,31.7z M101.3,16.2h-0.8v5.6h1
	c0.9,0.1,1.8-0.1,2.6-0.3c0.5-0.2,0.9-0.6,1.1-1c0.3-0.5,0.4-1,0.4-1.5c0-0.5-0.1-1.1-0.4-1.5c-0.3-0.5-0.7-0.8-1.2-1
	C103.2,16.2,102.3,16.1,101.3,16.2"/>
<path class="st2" d="M120.2,14h7.9v2.3h-5.6v4.5c0.2,0,0.4,0,0.5,0c1.6-0.1,3.1,0.5,4.2,1.6c1.1,1,1.7,2.5,1.7,4
	c0.1,1.5-0.5,3-1.7,4.1c-1.2,1.1-2.7,1.6-4.2,1.6c-1.5,0-2.9-0.3-4.2-1v-2.6c1.1,0.8,2.4,1.2,3.7,1.2c1,0,1.9-0.3,2.7-0.9
	c1.3-1,1.4-2.9,0.4-4.2c-0.1-0.2-0.3-0.3-0.5-0.5c-0.8-0.6-1.9-1-2.9-1c-0.7,0-1.4,0-2.1,0.3L120.2,14z"/>
<rect x="132.9" y="14" class="st2" width="2.5" height="17.7"/>
</svg>
