<?xml version="1.0" encoding="utf-8"?>
<!-- Generator: Adobe Illustrator 22.1.0, SVG Export Plug-In . SVG Version: 6.00 Build 0)  -->
<svg version="1.1" id="Layer_1" xmlns="http://www.w3.org/2000/svg" xmlns:xlink="http://www.w3.org/1999/xlink" x="0px" y="0px"
	 viewBox="0 0 149.5 63.6" style="enable-background:new 0 0 149.5 63.6;" xml:space="preserve">
<style type="text/css">
	.st0{fill:#FFFFFF;}
	.st1{fill:none;stroke:#1B9DD9;stroke-width:3.772;}
	.st2{fill:#1B9DD9;}
</style>
<rect x="1.9" y="1.9" class="st0" width="145.5" height="59.7"/>
<rect x="1.9" y="1.9" class="st1" width="145.5" height="59.7"/>
<g>
	<polygon class="st2" points="13.8,39.4 22.1,39.4 22.1,40.7 18.6,40.7 18.6,49.4 17.2,49.4 17.2,40.7 13.8,40.7 	"/>
	<polygon class="st2" points="31.9,39.4 33.3,39.4 33.3,49.4 31.9,49.4 31.9,45 26.3,45 26.3,49.4 24.9,49.4 24.9,39.4 26.3,39.4 
		26.3,43.7 31.9,43.7 	"/>
	<polygon class="st2" points="37,39.4 42.7,39.4 42.7,40.7 38.4,40.7 38.4,43.7 42.5,43.7 42.5,45 38.4,45 38.4,48.1 42.8,48.1 
		42.8,49.4 37,49.4 	"/>
	<path class="st2" d="M53.8,45.2l-1.1-0.7c-0.7-0.4-1.2-0.8-1.5-1.2c-0.3-0.4-0.4-0.9-0.4-1.4c0-0.8,0.3-1.4,0.8-1.9
		c0.5-0.5,1.3-0.7,2.1-0.7c0.8,0,1.6,0.2,2.3,0.7v1.6c-0.7-0.7-1.5-1-2.3-1c-0.5,0-0.8,0.1-1.1,0.3c-0.3,0.2-0.4,0.5-0.4,0.8
		c0,0.3,0.1,0.6,0.3,0.8c0.2,0.3,0.6,0.5,1.1,0.8l1.1,0.6c1.2,0.7,1.8,1.7,1.8,2.8c0,0.8-0.3,1.4-0.8,1.9c-0.5,0.5-1.2,0.7-2.1,0.7
		c-1,0-1.9-0.3-2.7-0.9v-1.8c0.8,1,1.7,1.5,2.7,1.5c0.4,0,0.8-0.1,1.1-0.4c0.3-0.2,0.4-0.6,0.4-0.9C55.1,46.3,54.6,45.7,53.8,45.2"
		/>
	<path class="st2" d="M66.4,39.4h1.4v5.7c0,0.8-0.1,1.3-0.2,1.7c-0.1,0.4-0.2,0.7-0.4,1c-0.2,0.3-0.4,0.5-0.6,0.7
		c-0.8,0.7-1.8,1-3.1,1c-1.3,0-2.3-0.3-3.1-1c-0.2-0.2-0.4-0.4-0.6-0.7c-0.2-0.3-0.3-0.6-0.4-1c-0.1-0.4-0.2-1-0.2-1.8v-5.6h1.4v5.7
		c0,0.9,0.1,1.6,0.3,2c0.2,0.4,0.5,0.7,1,0.9c0.4,0.2,1,0.3,1.5,0.3c0.8,0,1.5-0.2,2.1-0.7c0.3-0.2,0.5-0.5,0.6-0.8
		c0.1-0.3,0.2-0.9,0.2-1.7V39.4z"/>
	<polygon class="st2" points="79.2,39.4 80.5,39.4 80.5,49.4 79.3,49.4 72.6,41.7 72.6,49.4 71.3,49.4 71.3,39.4 72.4,39.4 
		79.2,47.1 	"/>
	<path class="st2" d="M89.1,49.5l0,0.1c0.3,0.1,0.5,0.2,0.6,0.4c0.1,0.2,0.2,0.4,0.2,0.6c0,0.4-0.1,0.7-0.4,0.9
		c-0.3,0.3-0.8,0.4-1.4,0.4c-0.2,0-0.3,0-0.5,0V51c0.2,0,0.4,0,0.5,0c0.3,0,0.5-0.1,0.6-0.2c0.1-0.1,0.1-0.1,0.1-0.2
		c0-0.1,0-0.2-0.1-0.3c-0.1-0.1-0.3-0.1-0.5-0.1c-0.1,0-0.1,0-0.2,0l0.3-0.8c-0.8-0.1-1.4-0.3-2-0.6c-0.8-0.5-1.4-1.1-1.8-1.9
		c-0.4-0.8-0.7-1.6-0.7-2.5c0-1.5,0.5-2.7,1.6-3.7c1-1,2.3-1.5,3.8-1.5c1,0,2.2,0.3,3.5,0.8v1.5c-1.2-0.7-2.3-1-3.4-1
		c-1.1,0-2.1,0.4-2.8,1.1c-0.8,0.7-1.1,1.6-1.1,2.7c0,1.1,0.4,2,1.1,2.7c0.7,0.7,1.7,1.1,2.8,1.1c1.2,0,2.4-0.4,3.5-1.1v1.6
		C91.7,49.2,90.5,49.5,89.1,49.5L89.1,49.5z"/>
	<path class="st2" d="M96,49.4v-10h2.5c1,0,1.8,0.2,2.4,0.7c0.6,0.5,0.9,1.2,0.9,2c0,0.6-0.1,1.1-0.4,1.5c-0.3,0.4-0.7,0.7-1.2,0.9
		c0.3,0.2,0.6,0.5,0.9,0.9c0.3,0.4,0.7,1,1.3,1.9c0.3,0.6,0.6,1,0.8,1.3l0.5,0.7H102l-0.4-0.7c0,0,0-0.1-0.1-0.1l-0.3-0.4l-0.4-0.7
		l-0.5-0.8c-0.3-0.4-0.6-0.7-0.8-1c-0.2-0.2-0.5-0.4-0.7-0.5c-0.2-0.1-0.5-0.2-1-0.2h-0.4v4.3H96z M97.8,40.6h-0.4v3.1h0.5
		c0.7,0,1.2-0.1,1.5-0.2c0.3-0.1,0.5-0.3,0.6-0.6c0.1-0.2,0.2-0.5,0.2-0.9c0-0.3-0.1-0.6-0.2-0.9c-0.2-0.3-0.4-0.4-0.7-0.5
		C99,40.7,98.5,40.6,97.8,40.6"/>
	<polygon class="st2" points="106.2,39.4 111.9,39.4 111.9,40.7 107.6,40.7 107.6,43.7 111.7,43.7 111.7,45 107.6,45 107.6,48.1 
		112,48.1 112,49.4 106.2,49.4 	"/>
	<path class="st2" d="M118.2,39.3h1l4.5,10h-1.5l-1.3-3h-4.3l-1.2,3h-1.5L118.2,39.3z M120.3,45.1l-1.6-3.6l-1.5,3.6H120.3z"/>
	<polygon class="st2" points="134.1,39.4 135.4,39.4 135.4,49.4 134,49.4 134,41.6 130.9,45.5 130.7,45.5 127.6,41.6 127.6,49.4 
		126.2,49.4 126.2,39.4 127.5,39.4 130.8,43.5 	"/>
	<polygon class="st2" points="13.8,14 23.3,14 23.3,16.3 16.4,16.3 16.4,21.2 23.3,21.2 23.3,23.5 16.4,23.5 16.4,31.7 13.8,31.7 	
		"/>
	<path class="st2" d="M31,13.9h1.8l7.9,17.8h-2.6l-2.4-5.3h-7.6L26,31.7h-2.6L31,13.9z M34.7,24.2l-2.9-6.4l-2.7,6.4H34.7z"/>
	<path class="st2" d="M57.6,27.6v2.8c-1.9,1-4,1.5-6.4,1.5c-2,0-3.7-0.4-5-1.2c-1.4-0.8-2.5-1.9-3.3-3.3c-0.8-1.4-1.2-2.9-1.2-4.5
		c0-2.6,0.9-4.7,2.8-6.5c1.8-1.8,4.1-2.6,6.8-2.6c1.9,0,3.9,0.5,6.2,1.5V18c-2.1-1.2-4.1-1.8-6.1-1.8c-2,0-3.7,0.6-5.1,1.9
		c-1.3,1.3-2,2.9-2,4.8c0,1.9,0.7,3.5,2,4.8c1.3,1.3,3,1.9,5.1,1.9C53.4,29.6,55.5,28.9,57.6,27.6"/>
	<polygon class="st2" points="59.8,14 74.6,14 74.6,16.2 68.5,16.2 68.5,31.7 65.9,31.7 65.9,16.2 59.8,16.2 	"/>
	<path class="st2" d="M84.7,13.8c2.7,0,5,0.9,6.8,2.6c1.8,1.7,2.7,3.9,2.7,6.5c0,2.6-0.9,4.8-2.8,6.5c-1.8,1.7-4.2,2.6-7,2.6
		c-2.7,0-4.9-0.9-6.7-2.6c-1.8-1.7-2.7-3.9-2.7-6.4c0-2.6,0.9-4.8,2.7-6.6C79.7,14.6,82,13.8,84.7,13.8 M84.8,16.2
		c-2,0-3.7,0.6-5,1.9c-1.3,1.3-2,2.9-2,4.9c0,1.9,0.7,3.5,2,4.8c1.3,1.3,2.9,1.9,4.9,1.9c2,0,3.6-0.6,5-1.9c1.3-1.3,2-2.9,2-4.8
		c0-1.9-0.7-3.5-2-4.7C88.4,16.8,86.7,16.2,84.8,16.2"/>
	<path class="st2" d="M98.1,31.7V14h4.4c1.8,0,3.2,0.4,4.3,1.3c1.1,0.9,1.6,2.1,1.6,3.6c0,1-0.3,1.9-0.8,2.7
		c-0.5,0.8-1.3,1.3-2.2,1.7c0.6,0.4,1.1,0.9,1.7,1.5c0.5,0.6,1.3,1.8,2.3,3.4c0.6,1,1.1,1.8,1.5,2.3l0.9,1.3h-3l-0.8-1.2
		c0,0-0.1-0.1-0.2-0.2l-0.5-0.7l-0.8-1.3l-0.8-1.4c-0.5-0.7-1-1.3-1.4-1.7c-0.4-0.4-0.8-0.7-1.2-0.9c-0.4-0.2-0.9-0.3-1.8-0.3h-0.7
		v7.7H98.1z M101.4,16.2h-0.8v5.6h1c1.3,0,2.2-0.1,2.6-0.3c0.5-0.2,0.9-0.6,1.1-1c0.3-0.4,0.4-0.9,0.4-1.5c0-0.6-0.1-1.1-0.4-1.5
		c-0.3-0.5-0.7-0.8-1.2-1C103.6,16.3,102.7,16.2,101.4,16.2"/>
	<path class="st2" d="M120.3,14h7.9v2.3h-5.6v4.5c0.2,0,0.4,0,0.5,0c1.7,0,3.1,0.5,4.2,1.6c1.1,1,1.7,2.4,1.7,4c0,1.7-0.5,3-1.6,4.1
		c-1.1,1-2.5,1.6-4.3,1.6c-1.4,0-2.8-0.3-4.2-1v-2.6c1.3,0.8,2.5,1.2,3.7,1.2c1.1,0,2-0.3,2.7-0.9c0.7-0.6,1.1-1.4,1.1-2.3
		c0-0.9-0.4-1.7-1.2-2.4c-0.8-0.6-1.8-0.9-2.9-0.9c-1,0-1.7,0.1-2.1,0.3V14z"/>
	<rect x="133" y="14" class="st2" width="2.5" height="17.7"/>
</g>
</svg>
